<svg width="50" height="50" viewBox="0 0 50 50" fill="none" xmlns="http://www.w3.org/2000/svg">
<g id="verified">
<path id="Vector" d="M29.187 43.7495C28.1662 43.7495 27.2079 43.2704 26.4162 42.8537C25.9162 42.6037 25.312 42.2912 24.9995 42.2912C24.687 42.2912 24.062 42.6037 23.5829 42.8537C22.5829 43.3745 21.3329 43.9995 19.9995 43.6454C18.6245 43.2912 17.8745 42.0829 17.2495 41.1245C16.9787 40.687 16.6037 40.1037 16.3537 39.9579C16.1037 39.812 15.437 39.7912 14.8745 39.7495C13.7495 39.687 12.3537 39.6245 11.3537 38.6454C10.3537 37.6245 10.2912 36.2287 10.2287 35.1037C10.2079 34.562 10.1662 33.8745 10.0204 33.6245C9.89537 33.3954 9.2912 33.0204 8.87453 32.7495C7.9162 32.1245 6.7287 31.3537 6.3537 29.9995C5.99953 28.6662 6.62453 27.4162 7.14537 26.4162C7.39537 25.9162 7.70787 25.312 7.70787 24.9995C7.70787 24.687 7.39537 24.062 7.14537 23.5829C6.62453 22.5829 5.99953 21.3329 6.3537 19.9995C6.70787 18.6245 7.9162 17.8745 8.87453 17.2495C9.31203 16.9787 9.89537 16.6037 10.0412 16.3537C10.187 16.1037 10.2079 15.437 10.2495 14.8745C10.312 13.7495 10.3745 12.3537 11.3537 11.3537C12.3745 10.3537 13.7704 10.2912 14.8954 10.2287C15.437 10.2079 16.1245 10.1662 16.3745 10.0204C16.6037 9.89537 16.9787 9.2912 17.2495 8.87453C17.8745 7.9162 18.6454 6.7287 19.9995 6.3537C21.3329 5.99953 22.5829 6.62453 23.5829 7.14537C24.0829 7.39537 24.687 7.70787 24.9995 7.70787C25.312 7.70787 25.937 7.39537 26.4162 7.14537C27.4162 6.64537 28.6662 5.99953 29.9995 6.3537C31.3745 6.70787 32.1245 7.9162 32.7495 8.87453C33.0204 9.31203 33.3954 9.89537 33.6454 10.0412C33.8954 10.187 34.562 10.2079 35.1245 10.2495C36.2495 10.312 37.6454 10.3745 38.6454 11.3537C39.6454 12.3745 39.7079 13.7704 39.7704 14.8954C39.7912 15.437 39.8329 16.1245 39.9787 16.3745C40.1037 16.6037 40.7079 16.9787 41.1245 17.2495C42.0829 17.8745 43.2704 18.6454 43.6454 19.9995C43.9995 21.3329 43.3745 22.5829 42.8537 23.5829C42.6037 24.0829 42.2912 24.687 42.2912 24.9995C42.2912 25.312 42.6037 25.937 42.8537 26.4162C43.3745 27.4162 43.9995 28.6662 43.6454 29.9995C43.2912 31.3745 42.0829 32.1245 41.1245 32.7495C40.687 33.0204 40.1037 33.3954 39.9579 33.6454C39.812 33.8954 39.7912 34.562 39.7495 35.1245C39.687 36.2495 39.6245 37.6454 38.6454 38.6454C37.6245 39.6454 36.2287 39.7079 35.1037 39.7704C34.562 39.7912 33.8745 39.8329 33.6245 39.9787C33.3954 40.1037 33.0204 40.7079 32.7495 41.1245C32.1245 42.0829 31.3537 43.2704 29.9995 43.6454C29.7287 43.7287 29.4579 43.7495 29.187 43.7495ZM20.8329 9.37453C20.8329 9.37453 20.8329 9.37453 20.812 9.37453C20.6037 9.45787 20.1245 10.1662 19.8954 10.562C19.3954 11.3329 18.8329 12.2079 17.937 12.7287C17.0204 13.2495 15.9787 13.312 15.0412 13.3537C14.5829 13.3745 13.7287 13.4162 13.5412 13.562C13.4162 13.7287 13.3745 14.562 13.3537 15.0204C13.312 15.9579 13.2495 16.9995 12.7287 17.8954C12.2079 18.7912 11.3329 19.3537 10.562 19.8537C10.1662 20.1037 9.45787 20.562 9.37453 20.7912C9.3537 21.0204 9.70787 21.7287 9.9162 22.1454C10.3329 22.9787 10.8329 23.9162 10.8329 24.9787C10.8329 26.0412 10.3537 26.9787 9.9162 27.812C9.70787 28.2287 9.33287 28.937 9.37453 29.1662C9.45787 29.3745 10.1662 29.8537 10.562 30.0829C11.3329 30.5829 12.2079 31.1454 12.7287 32.0412C13.2495 32.9579 13.312 33.9995 13.3537 34.937C13.3745 35.3954 13.4162 36.2495 13.562 36.437C13.7287 36.562 14.562 36.6037 15.0204 36.6245C15.9579 36.6662 16.9995 36.7287 17.8954 37.2495C18.7912 37.7704 19.3537 38.6454 19.8537 39.4162C20.1037 39.812 20.562 40.5204 20.7912 40.6037C20.9995 40.6662 21.7287 40.2704 22.1454 40.062C22.9787 39.6454 23.9162 39.1454 24.9787 39.1454C26.0412 39.1454 26.9787 39.6245 27.812 40.062C28.2287 40.2704 28.8954 40.6662 29.1662 40.6037C29.3745 40.5204 29.8537 39.812 30.0829 39.4162C30.5829 38.6454 31.1454 37.7704 32.0412 37.2495C32.9579 36.7287 33.9995 36.6662 34.937 36.6245C35.3954 36.6037 36.2495 36.562 36.437 36.4162C36.562 36.2495 36.6037 35.4162 36.6245 34.9579C36.6662 34.0204 36.7287 32.9787 37.2495 32.0829C37.7704 31.187 38.6454 30.6245 39.4162 30.1245C39.812 29.8745 40.5204 29.4162 40.6037 29.187C40.6245 28.9579 40.2704 28.2495 40.062 27.8329C39.6454 26.9995 39.1454 26.062 39.1454 24.9995C39.1454 23.937 39.6245 22.9995 40.062 22.1662C40.2704 21.7495 40.6245 21.0412 40.6037 20.812C40.5204 20.5829 39.7912 20.1245 39.4162 19.8745C38.6454 19.3745 37.7704 18.812 37.2495 17.9162C36.7287 16.9995 36.6662 15.9579 36.6245 15.0204C36.6037 14.562 36.562 13.7079 36.4162 13.5204C36.2495 13.3954 35.4162 13.3537 34.9579 13.3329C34.0204 13.2912 32.9787 13.2287 32.0829 12.7079C31.187 12.187 30.6245 11.312 30.1245 10.5412C29.8745 10.1454 29.4162 9.43703 29.187 9.3537C28.9787 9.2912 28.2495 9.68703 27.8329 9.89537C26.9995 10.312 26.062 10.812 24.9995 10.812C23.937 10.812 22.9995 10.3329 22.1662 9.89537C21.7495 9.68703 21.0829 9.3537 20.8329 9.3537V9.37453ZM21.8537 32.312C21.437 32.312 21.0412 32.1454 20.7495 31.8537L15.5204 26.6245C14.9162 26.0204 14.9162 25.0204 15.5204 24.4162C16.1245 23.812 17.1245 23.812 17.7287 24.4162L21.8537 28.5412L32.2495 18.1454C32.8537 17.5412 33.8537 17.5412 34.4579 18.1454C35.062 18.7495 35.062 19.7495 34.4579 20.3537L22.9579 31.8537C22.6662 32.1454 22.2704 32.312 21.8537 32.312Z" fill="white"/>
</g>
</svg>
