<svg width="50" height="50" viewBox="0 0 50 50" fill="none" xmlns="http://www.w3.org/2000/svg">
<g id="book">
<path id="Vector" fill-rule="evenodd" clip-rule="evenodd" d="M39.5807 6.76781H14.0599C12.7206 6.7285 11.4203 7.22175 10.444 8.13945C9.46775 9.05715 8.8951 10.3245 8.85156 11.6636V37.497C8.90592 39.0683 9.58128 40.5539 10.7295 41.6279C11.8778 42.702 13.4051 43.2767 14.9766 43.2261H39.5807C39.9935 43.2207 40.3878 43.0544 40.6796 42.7625C40.9715 42.4707 41.1378 42.0764 41.1432 41.6636V8.33031C41.1378 7.91758 40.9715 7.52328 40.6796 7.23142C40.3878 6.93955 39.9935 6.7732 39.5807 6.76781ZM38.0182 40.1011H14.9766C14.2336 40.1527 13.5006 39.9075 12.9382 39.4193C12.3758 38.9311 12.0299 38.2398 11.9766 37.497C12.0299 36.7542 12.3758 36.0628 12.9382 35.5746C13.5006 35.0865 14.2336 34.8412 14.9766 34.8928H38.0182V40.1011ZM38.0182 31.7678H14.9766C13.9277 31.769 12.896 32.034 11.9766 32.5386V11.6636C12.0243 11.1551 12.2688 10.6853 12.658 10.3544C13.0472 10.0236 13.5503 9.85797 14.0599 9.89281H38.0182V31.7678ZM18.2266 18.2285H31.7682C32.1826 18.2285 32.5801 18.0639 32.8731 17.7709C33.1661 17.4778 33.3307 17.0804 33.3307 16.666C33.3307 16.2516 33.1661 15.8542 32.8731 15.5612C32.5801 15.2681 32.1826 15.1035 31.7682 15.1035H18.2266C17.8122 15.1035 17.4147 15.2681 17.1217 15.5612C16.8287 15.8542 16.6641 16.2516 16.6641 16.666C16.6641 17.0804 16.8287 17.4778 17.1217 17.7709C17.4147 18.0639 17.8122 18.2285 18.2266 18.2285ZM31.7682 25.5197H18.2266C17.8122 25.5197 17.4147 25.3551 17.1217 25.062C16.8287 24.769 16.6641 24.3716 16.6641 23.9572C16.6641 23.5428 16.8287 23.1454 17.1217 22.8523C17.4147 22.5593 17.8122 22.3947 18.2266 22.3947H31.7682C32.1826 22.3947 32.5801 22.5593 32.8731 22.8523C33.1661 23.1454 33.3307 23.5428 33.3307 23.9572C33.3307 24.3716 33.1661 24.769 32.8731 25.062C32.5801 25.3551 32.1826 25.5197 31.7682 25.5197Z" fill="#4361EE"/>
</g>
</svg>
