<svg width="50" height="50" viewBox="0 0 50 50" fill="none" xmlns="http://www.w3.org/2000/svg">
<g id="briefcase">
<path id="Vector" d="M39.582 13.021H31.7695V10.4168C31.6947 9.38302 31.2152 8.42044 30.4352 7.73791C29.6551 7.05537 28.6374 6.70793 27.6029 6.77097H22.3945C21.36 6.70793 20.3423 7.05537 19.5622 7.73791C18.7822 8.42044 18.3027 9.38302 18.2279 10.4168V13.021H10.4154C9.45012 13.0264 8.52596 13.4123 7.84341 14.0948C7.16087 14.7774 6.775 15.7016 6.76953 16.6668V37.5001C6.775 38.4654 7.16087 39.3895 7.84341 40.0721C8.52596 40.7546 9.45012 41.1405 10.4154 41.146H39.582C40.5473 41.1405 41.4714 40.7546 42.154 40.0721C42.8365 39.3895 43.2224 38.4654 43.2279 37.5001V16.6668C43.2224 15.7016 42.8365 14.7774 42.154 14.0948C41.4714 13.4123 40.5473 13.0264 39.582 13.021ZM21.3529 10.4168C21.3529 10.2501 21.7487 9.89597 22.3945 9.89597H27.6029C28.2487 9.89597 28.6445 10.2501 28.6445 10.4168V13.021H21.3529V10.4168ZM10.4154 16.146H39.582C39.7202 16.146 39.8526 16.2008 39.9503 16.2985C40.048 16.3962 40.1029 16.5287 40.1029 16.6668V23.4376H9.89453V16.6668C9.89453 16.5287 9.9494 16.3962 10.0471 16.2985C10.1448 16.2008 10.2772 16.146 10.4154 16.146ZM18.2279 26.5626H31.7695V29.6876H18.2279V26.5626ZM39.582 38.021H10.4154C10.2772 38.021 10.1448 37.9661 10.0471 37.8684C9.9494 37.7707 9.89453 37.6383 9.89453 37.5001V26.5626H15.1029V31.2501C15.1083 31.6629 15.2746 32.0572 15.5665 32.349C15.8583 32.6409 16.2526 32.8072 16.6654 32.8126H33.332C33.7448 32.8072 34.1391 32.6409 34.4309 32.349C34.7228 32.0572 34.8891 31.6629 34.8945 31.2501V26.5626H40.1029V37.5001C40.1029 37.6383 40.048 37.7707 39.9503 37.8684C39.8526 37.9661 39.7202 38.021 39.582 38.021Z" fill="#4361EE"/>
</g>
</svg>
