<svg width="50" height="50" viewBox="0 0 50 50" fill="none" xmlns="http://www.w3.org/2000/svg">
<g id="calendar">
<path id="Vector" d="M34.8533 10.7129H32.3899V8.24952C32.3899 7.85752 32.2341 7.48158 31.9569 7.20439C31.6798 6.92721 31.3038 6.77148 30.9118 6.77148C30.5198 6.77148 30.1439 6.92721 29.8667 7.20439C29.5895 7.48158 29.4338 7.85752 29.4338 8.24952V10.7129H20.5655V8.24952C20.5655 7.85752 20.4098 7.48158 20.1326 7.20439C19.8554 6.92721 19.4795 6.77148 19.0875 6.77148C18.6955 6.77148 18.3195 6.92721 18.0424 7.20439C17.7652 7.48158 17.6094 7.85752 17.6094 8.24952V10.7129H15.146C13.7087 10.7129 12.3302 11.2839 11.3139 12.3003C10.2975 13.3166 9.72656 14.6951 9.72656 16.1324V37.8103C9.72656 39.2477 10.2975 40.6261 11.3139 41.6425C12.3302 42.6588 13.7087 43.2298 15.146 43.2298H34.8533C36.2906 43.2298 37.6691 42.6588 38.6854 41.6425C39.7018 40.6261 40.2727 39.2477 40.2727 37.8103V16.1324C40.2727 14.6951 39.7018 13.3166 38.6854 12.3003C37.6691 11.2839 36.2906 10.7129 34.8533 10.7129ZM15.146 13.669H17.6094V16.1324C17.6094 16.5244 17.7652 16.9004 18.0424 17.1775C18.3195 17.4547 18.6955 17.6104 19.0875 17.6104C19.4795 17.6104 19.8554 17.4547 20.1326 17.1775C20.4098 16.9004 20.5655 16.5244 20.5655 16.1324V13.669H29.4338V16.1324C29.4338 16.5244 29.5895 16.9004 29.8667 17.1775C30.1439 17.4547 30.5198 17.6104 30.9118 17.6104C31.3038 17.6104 31.6798 17.4547 31.9569 17.1775C32.2341 16.9004 32.3899 16.5244 32.3899 16.1324V13.669H34.8533C35.5066 13.669 36.1332 13.9285 36.5951 14.3905C37.0571 14.8525 37.3167 15.4791 37.3167 16.1324V21.5519H12.6826V16.1324C12.6826 15.4791 12.9422 14.8525 13.4042 14.3905C13.8661 13.9285 14.4927 13.669 15.146 13.669ZM34.8533 40.2737H15.146C14.4927 40.2737 13.8661 40.0142 13.4042 39.5522C12.9422 39.0903 12.6826 38.4637 12.6826 37.8103V24.508H37.3167V37.8103C37.3167 38.4637 37.0571 39.0903 36.5951 39.5522C36.1332 40.0142 35.5066 40.2737 34.8533 40.2737Z" fill="white"/>
</g>
</svg>
