<svg width="50" height="50" viewBox="0 0 50 50" fill="none" xmlns="http://www.w3.org/2000/svg">
<g id="chart-bar">
<path id="Vector" fill-rule="evenodd" clip-rule="evenodd" d="M9.375 42.1875C8.9606 42.1875 8.56317 42.0229 8.27015 41.7299C7.97712 41.4368 7.8125 41.0394 7.8125 40.625V9.375C7.8125 8.9606 7.97712 8.56317 8.27015 8.27015C8.56317 7.97712 8.9606 7.8125 9.375 7.8125C9.7894 7.8125 10.1868 7.97712 10.4799 8.27015C10.7729 8.56317 10.9375 8.9606 10.9375 9.375V39.0625H40.625C41.0394 39.0625 41.4368 39.2271 41.7299 39.5201C42.0229 39.8132 42.1875 40.2106 42.1875 40.625C42.1875 41.0394 42.0229 41.4368 41.7299 41.7299C41.4368 42.0229 41.0394 42.1875 40.625 42.1875H9.375ZM16.668 34.8958C16.2552 34.8904 15.8609 34.7241 15.5691 34.4322C15.2772 34.1404 15.1109 33.7461 15.1055 33.3333V25C15.1055 24.5856 15.2701 24.1882 15.5631 23.8951C15.8561 23.6021 16.2536 23.4375 16.668 23.4375C17.0824 23.4375 17.4798 23.6021 17.7728 23.8951C18.0658 24.1882 18.2305 24.5856 18.2305 25V33.3333C18.2251 33.7461 18.0587 34.1404 17.7669 34.4322C17.475 34.7241 17.0807 34.8904 16.668 34.8958ZM22.8581 34.4316C23.15 34.7234 23.5443 34.8898 23.957 34.8952C24.3698 34.8898 24.7641 34.7234 25.0559 34.4316C25.3478 34.1397 25.5141 33.7454 25.5195 33.3327V16.666C25.5195 16.2516 25.3549 15.8542 25.0619 15.5612C24.7689 15.2681 24.3714 15.1035 23.957 15.1035C23.5426 15.1035 23.1452 15.2681 22.8522 15.5612C22.5592 15.8542 22.3945 16.2516 22.3945 16.666V33.3327C22.3999 33.7454 22.5663 34.1397 22.8581 34.4316ZM31.25 34.8958C30.8373 34.8904 30.443 34.7241 30.1511 34.4322C29.8593 34.1404 29.6929 33.7461 29.6875 33.3333V25C29.6875 24.5856 29.8521 24.1882 30.1451 23.8951C30.4382 23.6021 30.8356 23.4375 31.25 23.4375C31.6644 23.4375 32.0618 23.6021 32.3549 23.8951C32.6479 24.1882 32.8125 24.5856 32.8125 25V33.3333C32.8071 33.7461 32.6408 34.1404 32.3489 34.4322C32.057 34.7241 31.6627 34.8904 31.25 34.8958ZM37.4441 34.4316C37.7359 34.7234 38.1302 34.8898 38.543 34.8952C38.9557 34.8898 39.35 34.7234 39.6419 34.4316C39.9337 34.1397 40.1001 33.7454 40.1055 33.3327V16.666C40.1055 16.2516 39.9408 15.8542 39.6478 15.5612C39.3548 15.2681 38.9574 15.1035 38.543 15.1035C38.1286 15.1035 37.7311 15.2681 37.4381 15.5612C37.1451 15.8542 36.9805 16.2516 36.9805 16.666V33.3327C36.9859 33.7454 37.1522 34.1397 37.4441 34.4316Z" fill="white"/>
</g>
</svg>
