<svg width="50" height="50" viewBox="0 0 50 50" fill="none" xmlns="http://www.w3.org/2000/svg">
<g id="chart-bar">
<path id="Vector" fill-rule="evenodd" clip-rule="evenodd" d="M9.375 42.1875C8.9606 42.1875 8.56317 42.0229 8.27015 41.7299C7.97712 41.4368 7.8125 41.0394 7.8125 40.625V9.375C7.8125 8.9606 7.97712 8.56317 8.27015 8.27015C8.56317 7.97712 8.9606 7.8125 9.375 7.8125C9.7894 7.8125 10.1868 7.97712 10.4799 8.27015C10.7729 8.56317 10.9375 8.9606 10.9375 9.375V39.0625H40.625C41.0394 39.0625 41.4368 39.2271 41.7299 39.5201C42.0229 39.8132 42.1875 40.2106 42.1875 40.625C42.1875 41.0394 42.0229 41.4368 41.7299 41.7299C41.4368 42.0229 41.0394 42.1875 40.625 42.1875H9.375ZM16.6667 34.8958C16.2539 34.8904 15.8596 34.7241 15.5678 34.4322C15.2759 34.1404 15.1096 33.7461 15.1042 33.3333V25C15.1042 24.5856 15.2688 24.1882 15.5618 23.8951C15.8548 23.6021 16.2523 23.4375 16.6667 23.4375C17.0811 23.4375 17.4785 23.6021 17.7715 23.8951C18.0645 24.1882 18.2292 24.5856 18.2292 25V33.3333C18.2238 33.7461 18.0574 34.1404 17.7656 34.4322C17.4737 34.7241 17.0794 34.8904 16.6667 34.8958ZM22.8594 34.4322C23.1513 34.7241 23.5456 34.8904 23.9583 34.8958C24.3711 34.8904 24.7654 34.7241 25.0572 34.4322C25.3491 34.1404 25.5154 33.7461 25.5208 33.3333V16.6667C25.5208 16.2523 25.3562 15.8548 25.0632 15.5618C24.7702 15.2688 24.3727 15.1042 23.9583 15.1042C23.5439 15.1042 23.1465 15.2688 22.8535 15.5618C22.5605 15.8548 22.3958 16.2523 22.3958 16.6667V33.3333C22.4012 33.7461 22.5676 34.1404 22.8594 34.4322ZM31.25 34.8958C30.8373 34.8904 30.443 34.7241 30.1511 34.4322C29.8593 34.1404 29.6929 33.7461 29.6875 33.3333V25C29.6875 24.5856 29.8521 24.1882 30.1451 23.8951C30.4382 23.6021 30.8356 23.4375 31.25 23.4375C31.6644 23.4375 32.0618 23.6021 32.3549 23.8951C32.6479 24.1882 32.8125 24.5856 32.8125 25V33.3333C32.8071 33.7461 32.6408 34.1404 32.3489 34.4322C32.057 34.7241 31.6627 34.8904 31.25 34.8958ZM37.4428 34.4322C37.7346 34.7241 38.1289 34.8904 38.5417 34.8958C38.9544 34.8904 39.3487 34.7241 39.6406 34.4322C39.9324 34.1404 40.0988 33.7461 40.1042 33.3333V16.6667C40.1042 16.2523 39.9396 15.8548 39.6465 15.5618C39.3535 15.2688 38.9561 15.1042 38.5417 15.1042C38.1273 15.1042 37.7298 15.2688 37.4368 15.5618C37.1438 15.8548 36.9792 16.2523 36.9792 16.6667V33.3333C36.9846 33.7461 37.1509 34.1404 37.4428 34.4322Z" fill="#4361EE"/>
</g>
</svg>
