<svg width="50" height="50" viewBox="0 0 50 50" fill="none" xmlns="http://www.w3.org/2000/svg">
<g id="cog">
<path id="Vector" fill-rule="evenodd" clip-rule="evenodd" d="M23.3531 42.8659C23.9146 43.1021 24.5172 43.2251 25.1263 43.2279C26.3444 43.1904 27.501 42.6841 28.3549 41.8147C29.2088 40.9453 29.6941 39.7797 29.7096 38.5612C29.7114 38.3582 29.7662 38.1591 29.8685 37.9837C29.9708 37.8084 30.1171 37.6627 30.293 37.5612C30.4768 37.4937 30.676 37.4794 30.8676 37.5199C31.0592 37.5604 31.2355 37.6542 31.3763 37.7904C31.8058 38.22 32.3157 38.5608 32.8769 38.7933C33.4381 39.0258 34.0397 39.1455 34.6471 39.1455C35.2546 39.1455 35.8561 39.0258 36.4173 38.7933C36.9786 38.5608 37.4885 38.22 37.918 37.7904C38.3443 37.3563 38.6799 36.8417 38.9052 36.2765C39.1306 35.7114 39.2411 35.107 39.2305 34.4987C39.2207 33.2801 38.7347 32.1137 37.8763 31.2487C37.7401 31.1079 37.6464 30.9316 37.6059 30.74C37.5653 30.5484 37.5796 30.3492 37.6471 30.1654C37.735 29.996 37.8661 29.8529 38.0271 29.7505C38.188 29.648 38.3732 29.5899 38.5638 29.582C39.1712 29.5875 39.7737 29.4733 40.3369 29.246C40.9002 29.0186 41.4131 28.6825 41.8464 28.2569C42.2798 27.8313 42.625 27.3245 42.8625 26.7655C43.1 26.2064 43.225 25.6061 43.2305 24.9987C43.193 23.7806 42.6867 22.624 41.8173 21.7701C40.9479 20.9162 39.7824 20.4309 38.5638 20.4154C38.3566 20.3993 38.1566 20.3319 37.982 20.2191C37.8074 20.1064 37.6637 19.9518 37.5638 19.7695C37.502 19.5747 37.4906 19.3675 37.5307 19.1671C37.5707 18.9667 37.661 18.7797 37.793 18.6237C38.2226 18.1942 38.5634 17.6843 38.7959 17.1231C39.0284 16.5619 39.1481 15.9603 39.1481 15.3529C39.1481 14.7454 39.0284 14.1439 38.7959 13.5827C38.5634 13.0214 38.2226 12.5115 37.793 12.082C37.3639 11.6489 36.8502 11.3088 36.2838 11.0829C35.7175 10.8571 35.1107 10.7504 34.5013 10.7695C33.2827 10.7793 32.1163 11.2653 31.2513 12.1237C31.1105 12.2599 30.9342 12.3536 30.7426 12.3942C30.551 12.4347 30.3518 12.4204 30.168 12.3529C29.9986 12.265 29.8555 12.1339 29.7531 11.973C29.6506 11.812 29.5925 11.6268 29.5846 11.4362C29.5901 10.8288 29.4759 10.2263 29.2486 9.66309C29.0212 9.09985 28.6851 8.58692 28.2595 8.15357C27.8339 7.72023 27.3271 7.37496 26.7681 7.13748C26.209 6.90001 25.6087 6.77498 25.0013 6.76953C23.7725 6.80744 22.6068 7.32238 21.7512 8.20519C20.8956 9.08801 20.4174 10.2693 20.418 11.4987C20.4019 11.7059 20.3345 11.9059 20.2217 12.0805C20.109 12.2551 19.9544 12.3989 19.7721 12.4987C19.5722 12.5523 19.3618 12.5537 19.1611 12.5026C18.9605 12.4515 18.7763 12.3497 18.6263 12.207C18.1968 11.7774 17.6869 11.4366 17.1257 11.2041C16.5645 10.9716 15.9629 10.8519 15.3555 10.8519C14.748 10.8519 14.1465 10.9716 13.5853 11.2041C13.024 11.4366 12.5141 11.7774 12.0846 12.207C11.6583 12.6411 11.3227 13.1557 11.0974 13.7209C10.8721 14.286 10.7615 14.8904 10.7721 15.4987C10.7819 16.7173 11.2679 17.8837 12.1263 18.7487C12.2695 18.9028 12.3638 19.0959 12.3972 19.3036C12.4306 19.5113 12.4016 19.7242 12.3138 19.9154C12.2395 20.0882 12.118 20.2365 11.9633 20.3434C11.8085 20.4503 11.6267 20.5113 11.4388 20.5195C10.8314 20.5168 10.2295 20.6337 9.6673 20.8636C9.10512 21.0935 8.59372 21.4319 8.16232 21.8594C7.73091 22.287 7.38794 22.7953 7.15299 23.3554C6.91803 23.9155 6.7957 24.5163 6.79297 25.1237C6.83076 26.3489 7.3428 27.5116 8.22115 28.3666C9.09949 29.2216 10.2755 29.7022 11.5013 29.707C11.7043 29.7088 11.9034 29.7636 12.0788 29.8659C12.2541 29.9682 12.3998 30.1145 12.5013 30.2904C12.5611 30.4799 12.5655 30.6827 12.5138 30.8747C12.4621 31.0666 12.3566 31.2398 12.2096 31.3737C11.78 31.8032 11.4392 32.3131 11.2067 32.8743C10.9742 33.4355 10.8545 34.0371 10.8545 34.6445C10.8545 35.252 10.9742 35.8535 11.2067 36.4147C11.4392 36.976 11.78 37.4859 12.2096 37.9154C13.0941 38.7648 14.275 39.2357 15.5013 39.2279C16.7199 39.2181 17.8863 38.7321 18.7513 37.8737C18.9054 37.7305 19.0985 37.6362 19.3062 37.6028C19.5139 37.5694 19.7268 37.5985 19.918 37.6862C20.0908 37.7605 20.2391 37.882 20.346 38.0367C20.4529 38.1915 20.5139 38.3733 20.5221 38.5612C20.5166 39.1703 20.6315 39.7745 20.8602 40.3391C21.0889 40.9037 21.4268 41.4175 21.8546 41.8512C22.2824 42.2848 22.7917 42.6296 23.3531 42.8659ZM21.0846 34.7904C20.5804 34.5643 20.033 34.4506 19.4805 34.457C18.3857 34.4637 17.3348 34.8885 16.543 35.6445C16.4062 35.7813 16.2438 35.8898 16.065 35.9639C15.8863 36.0379 15.6948 36.076 15.5013 36.076C15.3078 36.076 15.1163 36.0379 14.9376 35.9639C14.7588 35.8898 14.5964 35.7813 14.4596 35.6445C14.3228 35.5077 14.2143 35.3453 14.1403 35.1666C14.0663 34.9879 14.0282 34.7963 14.0282 34.6029C14.0282 34.4094 14.0663 34.2178 14.1403 34.0391C14.2143 33.8604 14.3228 33.698 14.4596 33.5612C15.0413 32.9776 15.4368 32.2346 15.5963 31.4262C15.7558 30.6178 15.6719 29.7803 15.3555 29.0195C15.01 28.2882 14.4649 27.6694 13.7829 27.2345C13.101 26.7995 12.3101 26.5661 11.5013 26.5612C11.0986 26.5678 10.7085 26.4206 10.4105 26.1496C10.1125 25.8787 9.92888 25.5044 9.89714 25.1029C9.91339 24.7013 10.0858 24.3219 10.3777 24.0456C10.6695 23.7693 11.0578 23.6179 11.4596 23.6237C12.2656 23.6051 13.0489 23.3532 13.7145 22.8983C14.3801 22.4435 14.8995 21.8053 15.2096 21.0612C15.5313 20.3044 15.6219 19.4693 15.4699 18.6611C15.3179 17.8529 14.9301 17.1078 14.3555 16.5195C14.2187 16.3827 14.1102 16.2203 14.0361 16.0416C13.9621 15.8629 13.924 15.6713 13.924 15.4779C13.924 15.2844 13.9621 15.0928 14.0361 14.9141C14.1102 14.7354 14.2187 14.573 14.3555 14.4362C14.4923 14.2994 14.6547 14.1909 14.8334 14.1169C15.0121 14.0428 15.2037 14.0047 15.3971 14.0047C15.5906 14.0047 15.7822 14.0428 15.9609 14.1169C16.1396 14.1909 16.302 14.2994 16.4388 14.4362C17.0333 15.0144 17.7833 15.407 18.5972 15.5661C19.4111 15.7251 20.2537 15.6438 21.0221 15.332C21.763 14.9905 22.3936 14.4486 22.8427 13.7675C23.2919 13.0864 23.5416 12.2934 23.5638 11.4779C23.5521 11.0738 23.6975 10.6809 23.9695 10.3817C24.2414 10.0826 24.6187 9.90048 25.0221 9.8737C25.4182 9.88995 25.7922 10.0602 26.0646 10.3481C26.337 10.6361 26.4862 11.019 26.4805 11.4154C26.5066 12.2143 26.7621 12.9889 27.2163 13.6467C27.6706 14.3045 28.3044 14.8177 29.0423 15.1252C29.7802 15.4327 30.591 15.5214 31.3779 15.3807C32.1649 15.2401 32.8947 14.876 33.4805 14.332C33.6173 14.1952 33.7797 14.0867 33.9584 14.0127C34.1371 13.9387 34.3287 13.9006 34.5221 13.9006C34.7156 13.9006 34.9072 13.9387 35.0859 14.0127C35.2646 14.0867 35.427 14.1952 35.5638 14.332C35.7006 14.4688 35.8091 14.6312 35.8831 14.81C35.9572 14.9887 35.9953 15.1802 35.9953 15.3737C35.9953 15.5672 35.9572 15.7587 35.8831 15.9374C35.8091 16.1162 35.7006 16.2786 35.5638 16.4154C34.9856 17.0099 34.593 17.7598 34.4339 18.5737C34.2749 19.3876 34.3562 20.2302 34.668 20.9987C35.0095 21.7396 35.5514 22.3702 36.2325 22.8193C36.9136 23.2684 37.7066 23.5182 38.5221 23.5404C38.9262 23.5287 39.3191 23.6741 39.6183 23.9461C39.9174 24.218 40.0995 24.5953 40.1263 24.9987C40.1101 25.3947 39.9398 25.7688 39.6519 26.0412C39.3639 26.3136 38.981 26.4628 38.5846 26.457C37.7831 26.4587 36.9991 26.6915 36.3266 27.1275C35.6541 27.5636 35.1216 28.1843 34.793 28.9154C34.4739 29.6742 34.3867 30.5105 34.5424 31.3188C34.6982 32.127 35.0898 32.8711 35.668 33.457C35.9442 33.7333 36.0994 34.108 36.0994 34.4987C36.0994 34.8894 35.9442 35.2641 35.668 35.5404C35.3917 35.8166 35.017 35.9718 34.6263 35.9718C34.2356 35.9718 33.8609 35.8166 33.5846 35.5404C33.001 34.9587 32.2581 34.5632 31.4497 34.4037C30.6413 34.2443 29.8037 34.3281 29.043 34.6445C28.3117 34.99 27.6929 35.5351 27.2579 36.2171C26.823 36.899 26.5896 37.6899 26.5846 38.4987C26.5912 38.9014 26.444 39.2915 26.1731 39.5895C25.9022 39.8876 25.5278 40.0711 25.1263 40.1029C24.7247 40.0866 24.3454 39.9142 24.0691 39.6223C23.7928 39.3305 23.6414 38.9422 23.6471 38.5404C23.6286 37.7344 23.3766 36.9511 22.9218 36.2855C22.4669 35.6199 21.8288 35.1005 21.0846 34.7904ZM21.6074 30.0741C22.6112 30.7449 23.7914 31.1029 24.9987 31.1029C26.6176 31.1029 28.1702 30.4598 29.315 29.315C30.4598 28.1702 31.1029 26.6176 31.1029 24.9987C31.1029 23.7914 30.7449 22.6112 30.0741 21.6074C29.4034 20.6036 28.4501 19.8212 27.3347 19.3592C26.2193 18.8972 24.9919 18.7763 23.8078 19.0118C22.6237 19.2474 21.5361 19.8287 20.6824 20.6824C19.8287 21.5361 19.2474 22.6237 19.0118 23.8078C18.7763 24.9919 18.8972 26.2193 19.3592 27.3347C19.8212 28.4501 20.6036 29.4034 21.6074 30.0741ZM23.3436 22.5216C23.8335 22.1943 24.4095 22.0195 24.9987 22.0195C25.7888 22.0195 26.5466 22.3334 27.1053 22.8921C27.664 23.4508 27.9779 24.2086 27.9779 24.9987C27.9779 25.5879 27.8031 26.1639 27.4758 26.6538C27.1484 27.1438 26.6832 27.5256 26.1388 27.7511C25.5944 27.9766 24.9954 28.0356 24.4175 27.9206C23.8396 27.8057 23.3088 27.5219 22.8921 27.1053C22.4755 26.6886 22.1917 26.1578 22.0768 25.5799C21.9618 25.002 22.0208 24.403 22.2463 23.8586C22.4718 23.3143 22.8536 22.849 23.3436 22.5216Z" fill="#4361EE"/>
</g>
</svg>
