<svg width="50" height="50" viewBox="0 0 50 50" fill="none" xmlns="http://www.w3.org/2000/svg">
<g id="eye">
<path id="Vector" fill-rule="evenodd" clip-rule="evenodd" d="M6.91028 25.6566C7.31397 26.5407 13.0316 39.0625 25 39.0625C36.9684 39.0625 42.686 26.5407 43.0897 25.6566C43.0957 25.6435 43.1005 25.6329 43.1042 25.625C43.1867 25.427 43.2292 25.2145 43.2292 25C43.2292 24.7855 43.1867 24.573 43.1042 24.375C43.1005 24.3671 43.0957 24.3565 43.0897 24.3434C42.686 23.4593 36.9684 10.9375 25 10.9375C13.0316 10.9375 7.31397 23.4593 6.91028 24.3434C6.9043 24.3565 6.89948 24.3671 6.89583 24.375C6.81331 24.573 6.77083 24.7855 6.77083 25C6.77083 25.2145 6.81331 25.427 6.89583 25.625C6.89948 25.6329 6.9043 25.6435 6.91028 25.6566ZM25 35.9375C16.3125 35.9375 11.2917 27.3958 10.0625 25C11.2917 22.6042 16.3125 14.0625 25 14.0625C33.6875 14.0625 38.7083 22.6042 39.9375 25C38.7083 27.3958 33.6875 35.9375 25 35.9375ZM21.2383 30.6297C22.3518 31.3737 23.6609 31.7708 25 31.7708C26.7941 31.7653 28.513 31.0502 29.7816 29.7816C31.0502 28.513 31.7653 26.7941 31.7708 25C31.7708 23.6609 31.3737 22.3518 30.6297 21.2383C29.8858 20.1249 28.8283 19.257 27.5911 18.7446C26.3539 18.2321 24.9925 18.098 23.6791 18.3593C22.3657 18.6205 21.1592 19.2654 20.2123 20.2123C19.2654 21.1592 18.6205 22.3657 18.3593 23.6791C18.098 24.9925 18.2321 26.3539 18.7446 27.5911C19.257 28.8283 20.1249 29.8858 21.2383 30.6297ZM22.9745 21.9686C23.574 21.568 24.2789 21.3542 25 21.3542C25.9653 21.3596 26.8894 21.7455 27.572 22.4281C28.2545 23.1106 28.6404 24.0348 28.6458 25C28.6458 25.7211 28.432 26.426 28.0314 27.0255C27.6308 27.6251 27.0614 28.0924 26.3952 28.3683C25.729 28.6443 24.996 28.7165 24.2887 28.5758C23.5815 28.4351 22.9319 28.0879 22.422 27.578C21.9121 27.0681 21.5649 26.4185 21.4242 25.7113C21.2835 25.004 21.3558 24.271 21.6317 23.6048C21.9076 22.9386 22.3749 22.3692 22.9745 21.9686Z" fill="#4361EE"/>
</g>
</svg>
