<svg width="26" height="46" viewBox="0 0 26 46" fill="none" xmlns="http://www.w3.org/2000/svg">
<g id="&#60;Path&#62;">
<path id="Vector" d="M2.79168 45.6044C2.5009 45.6028 2.21335 45.5433 1.94584 45.4294C1.5468 45.2663 1.20574 44.9874 0.966617 44.6287C0.727492 44.27 0.601256 43.8479 0.604175 43.4169V2.58353C0.619977 2.16845 0.753635 1.76645 0.989516 1.42454C1.2254 1.08263 1.55375 0.81495 1.93618 0.652801C2.31861 0.490653 2.73929 0.44074 3.14904 0.508901C3.55879 0.577062 3.94067 0.760478 4.25001 1.0377L24.6667 21.4544C25.0763 21.8645 25.3064 22.4205 25.3064 23.0002C25.3064 23.5799 25.0763 24.1359 24.6667 24.546L4.25001 44.9627C3.85865 45.3476 3.33987 45.5759 2.79168 45.6044ZM4.97918 7.8627V38.1377L20.1167 23.0002L4.97918 7.8627Z" fill="white"/>
</g>
</svg>
