<svg width="34" height="34" viewBox="0 0 34 34" fill="none" xmlns="http://www.w3.org/2000/svg">
<g id="verified">
<path id="Vector" d="M19.8472 29.7497C19.153 29.7497 18.5014 29.4239 17.963 29.1405C17.623 28.9705 17.2122 28.758 16.9997 28.758C16.7872 28.758 16.3622 28.9705 16.0363 29.1405C15.3563 29.4947 14.5064 29.9197 13.5997 29.6789C12.6647 29.438 12.1547 28.6164 11.7297 27.9647C11.5455 27.6672 11.2905 27.2705 11.1205 27.1714C10.9505 27.0722 10.4972 27.058 10.1147 27.0297C9.34968 26.9872 8.40052 26.9447 7.72052 26.2788C7.04052 25.5847 6.99802 24.6355 6.95552 23.8705C6.94135 23.5022 6.91302 23.0347 6.81385 22.8647C6.72885 22.7088 6.31802 22.4538 6.03468 22.2697C5.38302 21.8447 4.57552 21.3205 4.32052 20.3997C4.07968 19.493 4.50468 18.643 4.85885 17.963C5.02885 17.623 5.24135 17.2122 5.24135 16.9997C5.24135 16.7872 5.02885 16.3622 4.85885 16.0363C4.50468 15.3563 4.07968 14.5064 4.32052 13.5997C4.56135 12.6647 5.38302 12.1547 6.03468 11.7297C6.33218 11.5455 6.72885 11.2905 6.82802 11.1205C6.92718 10.9505 6.94135 10.4972 6.96968 10.1147C7.01218 9.34968 7.05468 8.40052 7.72052 7.72052C8.41468 7.04052 9.36385 6.99802 10.1289 6.95552C10.4972 6.94135 10.9647 6.91302 11.1347 6.81385C11.2905 6.72885 11.5455 6.31802 11.7297 6.03468C12.1547 5.38302 12.6789 4.57552 13.5997 4.32052C14.5064 4.07968 15.3563 4.50468 16.0363 4.85885C16.3763 5.02885 16.7872 5.24135 16.9997 5.24135C17.2122 5.24135 17.6372 5.02885 17.963 4.85885C18.643 4.51885 19.493 4.07968 20.3997 4.32052C21.3347 4.56135 21.8447 5.38302 22.2697 6.03468C22.4538 6.33218 22.7088 6.72885 22.8788 6.82802C23.0488 6.92718 23.5022 6.94135 23.8847 6.96968C24.6497 7.01218 25.5989 7.05468 26.2788 7.72052C26.9588 8.41468 27.0014 9.36385 27.0439 10.1289C27.058 10.4972 27.0864 10.9647 27.1855 11.1347C27.2705 11.2905 27.6814 11.5455 27.9647 11.7297C28.6164 12.1547 29.4239 12.6789 29.6789 13.5997C29.9197 14.5064 29.4947 15.3563 29.1405 16.0363C28.9705 16.3763 28.758 16.7872 28.758 16.9997C28.758 17.2122 28.9705 17.6372 29.1405 17.963C29.4947 18.643 29.9197 19.493 29.6789 20.3997C29.438 21.3347 28.6164 21.8447 27.9647 22.2697C27.6672 22.4538 27.2705 22.7088 27.1714 22.8788C27.0722 23.0488 27.058 23.5022 27.0297 23.8847C26.9872 24.6497 26.9447 25.5989 26.2788 26.2788C25.5847 26.9588 24.6355 27.0014 23.8705 27.0439C23.5022 27.058 23.0347 27.0864 22.8647 27.1855C22.7088 27.2705 22.4538 27.6814 22.2697 27.9647C21.8447 28.6164 21.3205 29.4239 20.3997 29.6789C20.2155 29.7355 20.0314 29.7497 19.8472 29.7497ZM14.1664 6.37468C14.1664 6.37468 14.1664 6.37468 14.1522 6.37468C14.0105 6.43135 13.6847 6.91302 13.5289 7.18218C13.1889 7.70635 12.8063 8.30135 12.1972 8.65552C11.5738 9.00968 10.8655 9.05218 10.228 9.08052C9.91635 9.09468 9.33552 9.12302 9.20802 9.22218C9.12302 9.33552 9.09468 9.90218 9.08052 10.2139C9.05218 10.8514 9.00968 11.5597 8.65552 12.1689C8.30135 12.778 7.70635 13.1605 7.18218 13.5005C6.91302 13.6705 6.43135 13.9822 6.37468 14.138C6.36052 14.2938 6.60135 14.7755 6.74302 15.0589C7.02635 15.6255 7.36635 16.263 7.36635 16.9855C7.36635 17.708 7.04052 18.3455 6.74302 18.9122C6.60135 19.1955 6.34635 19.6772 6.37468 19.833C6.43135 19.9747 6.91302 20.3005 7.18218 20.4564C7.70635 20.7963 8.30135 21.1789 8.65552 21.788C9.00968 22.4114 9.05218 23.1197 9.08052 23.7572C9.09468 24.0689 9.12302 24.6497 9.22218 24.7772C9.33552 24.8622 9.90218 24.8905 10.2139 24.9047C10.8514 24.933 11.5597 24.9755 12.1689 25.3297C12.778 25.6838 13.1605 26.2789 13.5005 26.803C13.6705 27.0722 13.9822 27.5539 14.138 27.6105C14.2797 27.653 14.7755 27.3839 15.0589 27.2422C15.6255 26.9589 16.263 26.6189 16.9855 26.6189C17.708 26.6189 18.3455 26.9447 18.9122 27.2422C19.1955 27.3839 19.6489 27.653 19.833 27.6105C19.9747 27.5539 20.3005 27.0722 20.4564 26.803C20.7963 26.2789 21.1789 25.6838 21.788 25.3297C22.4114 24.9755 23.1197 24.933 23.7572 24.9047C24.0689 24.8905 24.6497 24.8622 24.7772 24.763C24.8622 24.6497 24.8905 24.083 24.9047 23.7714C24.933 23.1339 24.9755 22.4255 25.3297 21.8163C25.6838 21.2072 26.2789 20.8247 26.803 20.4847C27.0722 20.3147 27.5539 20.003 27.6105 19.8472C27.6247 19.6913 27.3839 19.2097 27.2422 18.9263C26.9589 18.3597 26.6189 17.7222 26.6189 16.9997C26.6189 16.2772 26.9447 15.6397 27.2422 15.073C27.3839 14.7897 27.6247 14.308 27.6105 14.1522C27.5539 13.9964 27.058 13.6847 26.803 13.5147C26.2789 13.1747 25.6838 12.7922 25.3297 12.183C24.9755 11.5597 24.933 10.8514 24.9047 10.2139C24.8905 9.90218 24.8622 9.32135 24.763 9.19385C24.6497 9.10885 24.083 9.08052 23.7714 9.06635C23.1339 9.03802 22.4255 8.99552 21.8163 8.64135C21.2072 8.28718 20.8247 7.69218 20.4847 7.16802C20.3147 6.89885 20.003 6.41718 19.8472 6.36052C19.7055 6.31802 19.2097 6.58718 18.9263 6.72885C18.3597 7.01218 17.7222 7.35218 16.9997 7.35218C16.2772 7.35218 15.6397 7.02635 15.073 6.72885C14.7897 6.58718 14.3364 6.36052 14.1664 6.36052V6.37468ZM14.8605 21.9722C14.5772 21.9722 14.308 21.8589 14.1097 21.6605L10.5538 18.1047C10.143 17.6938 10.143 17.0139 10.5538 16.603C10.9647 16.1922 11.6447 16.1922 12.0555 16.603L14.8605 19.408L21.9297 12.3389C22.3405 11.928 23.0205 11.928 23.4314 12.3389C23.8422 12.7497 23.8422 13.4297 23.4314 13.8405L15.6114 21.6605C15.413 21.8589 15.1439 21.9722 14.8605 21.9722Z" fill="#85C225"/>
</g>
</svg>
